<svg width="44" height="45" viewBox="0 0 44 45" fill="none" xmlns="http://www.w3.org/2000/svg">
<rect x="0.5" y="0.5" width="43" height="44" rx="14.5" fill="#5065FC" stroke="black"/>
<g clip-path="url(#clip0_0_1)">
<path d="M28.5938 10.6904L28.4437 10.5H28.2012H15.7989H15.5564L15.4062 10.6904L12.1478 14.8229H7H6.5V15.3229V34V34.5H7H37H37.5V34V15.3229V14.8229H37H31.8522L28.5938 10.6904ZM31.0102 17.0198H35.279V32.3031H8.72099V17.0198H12.9897H13.2322L13.3823 16.8294L16.6408 12.6969H27.3592L30.6176 16.8294L30.7677 17.0198H31.0102Z" fill="white" stroke="black"/>
<path d="M27.3327 17.1129V16.7969V15.6V15.1H26.8327H24.0227H23.5227V15.6V18.3546V18.8546H24.0227H25.2437H25.7437V18.6552C26.9389 19.6872 27.6389 21.1743 27.6389 22.7854C27.6389 25.8181 25.1183 28.3031 22 28.3031H21.5V28.8031V30V30.5H22C26.325 30.5 29.8599 27.049 29.8599 22.7854C29.8599 20.5834 28.9249 18.5487 27.3327 17.1129Z" fill="white" stroke="black"/>
<path d="M17.1863 26.4669C16.2916 25.4778 15.7798 24.1915 15.7798 22.8147C15.7798 19.782 18.3004 17.2969 21.4187 17.2969H21.9187V16.7969V15.6V15.1H21.4187C17.0938 15.1 13.5588 18.551 13.5588 22.8147C13.5588 24.7796 14.3042 26.6126 15.5972 28.0053V28.4879V29.6848V30.1848H16.0972H18.9073H19.4073V29.6848V26.9303V26.4303H18.9073H17.6863H17.1863V26.4669Z" fill="white" stroke="black"/>
</g>
<defs>
<clipPath id="clip0_0_1">
<rect width="38" height="38" fill="white" transform="translate(3 3)"/>
</clipPath>
</defs>
</svg>
