<svg width="66" height="66" viewBox="0 0 66 66" fill="none" xmlns="http://www.w3.org/2000/svg">
<rect x="0.5" y="0.5" width="65" height="65" rx="20.5" fill="#5065FC" stroke="black"/>
<path d="M25.5179 20.0099H25.2085H21.1875C18.6877 20.0099 16.625 22.0726 16.625 24.5724V41.4474C16.625 43.9472 18.6877 46.0099 21.1875 46.0099H44.8125C47.3123 46.0099 49.375 43.9472 49.375 41.4474V24.5724C49.375 22.0726 47.3123 20.0099 44.8125 20.0099H40.7915H40.4821L40.344 19.733L39.8005 18.6426C39.1872 17.416 37.9241 16.6349 36.553 16.6349H29.447C28.0761 16.6349 26.8132 17.4157 26.1998 18.642L25.5179 20.0099ZM25.5179 20.0099L25.656 19.733L26.1995 18.6426L25.5179 20.0099ZM37.6759 19.7049L37.6758 19.7048C37.4623 19.2778 37.0331 19.0099 36.553 19.0099H29.447C28.967 19.0099 28.5377 19.2777 28.3241 19.7049L27.3123 21.7285C27.2137 21.9257 27.0621 22.0916 26.8744 22.2076C26.6868 22.3235 26.4706 22.3849 26.25 22.3849H26.25H21.1875C19.9594 22.3849 19 23.3443 19 24.5724V41.4474C19 42.6755 19.9594 43.6349 21.1875 43.6349H44.8125C46.0406 43.6349 47 42.6755 47 41.4474V24.5724C47 23.3443 46.0406 22.3849 44.8125 22.3849H39.75H39.75C39.5294 22.3849 39.3132 22.3235 39.1256 22.2076C38.938 22.0916 38.7863 21.9258 38.6877 21.7285C38.6877 21.7285 38.6877 21.7285 38.6877 21.7285L37.6759 19.7049Z" fill="white" stroke="black"/>
<path d="M12.75 12.2599H12.25V12.7599V17.8224C12.25 18.1373 12.1249 18.4394 11.9022 18.6621C11.6795 18.8848 11.3774 19.0099 11.0625 19.0099C10.7476 19.0099 10.4455 18.8848 10.2228 18.6621C10.0001 18.4394 9.875 18.1373 9.875 17.8224V11.0724C9.875 11.0724 9.875 11.0724 9.875 11.0724C9.87504 10.7575 10.0002 10.4554 10.2229 10.2327C10.4456 10.0101 10.7476 9.88493 11.0625 9.88489C11.0625 9.88489 11.0625 9.88489 11.0625 9.88489H17.8125C18.1274 9.88489 18.4295 10.01 18.6522 10.2327C18.8749 10.4554 19 10.7574 19 11.0724C19 11.3873 18.8749 11.6894 18.6522 11.9121C18.4295 12.1348 18.1274 12.2599 17.8125 12.2599H12.75Z" fill="white" stroke="black"/>
<path d="M12.25 53.2599V53.7599H12.75H17.8125C18.1274 53.7599 18.4295 53.885 18.6522 54.1077C18.8749 54.3304 19 54.6324 19 54.9474C19 55.2623 18.8749 55.5644 18.6522 55.7871C18.4295 56.0098 18.1274 56.1349 17.8125 56.1349H11.0625C11.0625 56.1349 11.0625 56.1349 11.0625 56.1349C10.7476 56.1348 10.4456 56.0097 10.2229 55.787C10.0002 55.5643 9.87504 55.2623 9.875 54.9474C9.875 54.9474 9.875 54.9474 9.875 54.9473V48.1974C9.875 47.8824 10.0001 47.5804 10.2228 47.3577C10.4455 47.135 10.7476 47.0099 11.0625 47.0099C11.3774 47.0099 11.6795 47.135 11.9022 47.3577C12.1249 47.5804 12.25 47.8824 12.25 48.1974V53.2599Z" fill="white" stroke="black"/>
<path d="M53.75 12.7599V12.2599H53.25H48.1875C47.8726 12.2599 47.5705 12.1348 47.3478 11.9121C47.1251 11.6894 47 11.3873 47 11.0724C47 10.7574 47.1251 10.4554 47.3478 10.2327C47.5705 10.01 47.8726 9.88489 48.1875 9.88489H54.9375C54.9375 9.88489 54.9375 9.88489 54.9375 9.88489C55.2524 9.88493 55.5544 10.0101 55.7771 10.2327C55.9998 10.4554 56.125 10.7575 56.125 11.0724C56.125 11.0724 56.125 11.0724 56.125 11.0724V17.8224C56.125 18.1373 55.9999 18.4394 55.7772 18.6621C55.5545 18.8848 55.2524 19.0099 54.9375 19.0099C54.6226 19.0099 54.3205 18.8848 54.0978 18.6621C53.8751 18.4394 53.75 18.1373 53.75 17.8224V12.7599Z" fill="white" stroke="black"/>
<path d="M53.25 53.7599H53.75V53.2599V48.1974C53.75 47.8824 53.8751 47.5804 54.0978 47.3577C54.3205 47.135 54.6226 47.0099 54.9375 47.0099C55.2524 47.0099 55.5545 47.135 55.7772 47.3577C55.9999 47.5804 56.125 47.8824 56.125 48.1974V54.9473C56.125 54.9474 56.125 54.9474 56.125 54.9474C56.125 55.2623 55.9998 55.5643 55.7771 55.787C55.5544 56.0097 55.2524 56.1348 54.9375 56.1349C54.9375 56.1349 54.9375 56.1349 54.9375 56.1349H48.1875C47.8726 56.1349 47.5705 56.0098 47.3478 55.7871C47.1251 55.5644 47 55.2623 47 54.9474C47 54.6324 47.1251 54.3304 47.3478 54.1077C47.5705 53.885 47.8726 53.7599 48.1875 53.7599H53.25Z" fill="white" stroke="black"/>
<path d="M26.75 33.0099C26.75 29.5781 29.5682 26.7599 33 26.7599C36.4318 26.7599 39.25 29.5781 39.25 33.0099C39.25 36.4417 36.4318 39.2599 33 39.2599C29.5682 39.2599 26.75 36.4417 26.75 33.0099ZM36.875 33.0099C36.875 30.8498 35.1601 29.1349 33 29.1349C30.8399 29.1349 29.125 30.8498 29.125 33.0099C29.125 35.17 30.8399 36.8849 33 36.8849C35.1601 36.8849 36.875 35.17 36.875 33.0099Z" fill="white" stroke="black"/>
<path d="M40.5978 25.4209C40.8205 25.1982 41.1226 25.0731 41.4375 25.0731C41.7524 25.0731 42.0545 25.1982 42.2772 25.4209C42.4999 25.6436 42.625 25.9457 42.625 26.2606C42.625 26.5756 42.4999 26.8776 42.2772 27.1003C42.0545 27.323 41.7524 27.4481 41.4375 27.4481C41.1226 27.4481 40.8205 27.323 40.5978 27.1003C40.3751 26.8776 40.25 26.5756 40.25 26.2606C40.25 25.9457 40.3751 25.6436 40.5978 25.4209Z" fill="white" stroke="black"/>
</svg>
