<svg width="220" height="250" viewBox="0 0 220 250" fill="none" xmlns="http://www.w3.org/2000/svg">
<path d="M69.557 8.97021L69.5564 8.97047C47.5752 18.9088 30.3516 37.0629 22.7009 58.2585L22.6998 58.2616C19.466 67.0427 18.797 72.3063 18.797 88.6594V103.381V103.805L18.3785 103.875L15.1982 104.401L15.188 104.402C10.6218 105.061 5.97153 107.702 3.29417 111.197L3.29424 111.197L3.28846 111.204C2.04072 112.772 1.45688 113.577 1.11629 115.193C0.762031 116.873 0.677633 119.406 0.55149 124.425L0.551428 124.427C0.384113 130.133 0.637764 136.69 1.12717 139.109C3.10391 148.493 10.203 157.917 19.4655 163.262C20.6016 163.904 21.6346 164.528 22.3864 165.013C22.7616 165.255 23.0725 165.466 23.2929 165.629C23.4016 165.709 23.498 165.785 23.5713 165.851C23.6066 165.883 23.6489 165.924 23.6863 165.971C23.7048 165.994 23.7313 166.029 23.7553 166.074C23.7725 166.107 23.8066 166.178 23.8161 166.274C23.817 166.279 23.8182 166.287 23.82 166.297C23.8252 166.327 23.8333 166.372 23.8444 166.431C23.8666 166.55 23.8996 166.721 23.9426 166.94C24.0286 167.377 24.1538 168 24.3105 168.759C24.6238 170.278 25.0625 172.34 25.5638 174.552L25.5639 174.552L25.5655 174.56C27.8638 185.511 30.0901 192.849 33.8807 199.541C37.6732 206.237 43.0496 212.318 51.7045 220.723L51.7048 220.723C67.6946 236.276 73.3449 241.115 80.6494 245.361L80.6504 245.362L87.7312 249.5H110.193H132.653L138.725 245.892C138.726 245.891 138.726 245.891 138.727 245.891C142.063 243.87 147.146 240.429 149.883 238.196L149.889 238.191L149.894 238.187C152.203 236.411 159.476 229.288 166.895 221.727C174.305 214.175 181.8 206.249 184.545 202.889C186.207 200.852 187.962 197.347 189.631 192.826C191.295 188.317 192.859 182.838 194.152 176.885L194.152 176.884L196.496 166.218L196.542 166.007L196.727 165.896L200.485 163.648C200.487 163.647 200.488 163.646 200.49 163.645C209.794 157.829 214.809 152.2 217.773 144.145L217.775 144.14C219.245 140.254 219.5 137.785 219.5 127.643C219.5 124.347 219.396 121.128 219.229 118.587C219.146 117.315 219.047 116.218 218.939 115.368C218.828 114.495 218.713 113.942 218.618 113.714L218.616 113.709C218.154 112.569 216.877 110.938 215.308 109.4C213.747 107.869 211.976 106.506 210.586 105.864C209.47 105.364 207.179 104.773 205.519 104.475C205.518 104.475 205.517 104.475 205.516 104.474L202.343 103.95L201.924 103.881V103.456V90.387C201.924 79.8471 201.38 72.2864 199.813 65.5251C198.248 58.7701 195.655 52.7878 191.526 45.4138L191.526 45.4129C178.717 22.4227 154.082 5.83215 126.436 1.49765C122.623 0.902481 116.479 0.564682 110.398 0.508423C104.315 0.452118 98.3428 0.678009 94.8683 1.19759C87.9729 2.24139 77.1369 5.53151 69.557 8.97021ZM23.8152 166.268C23.8152 166.268 23.8152 166.268 23.8152 166.269L23.8152 166.268ZM130.222 11.407L130.223 11.4073C139.579 13.5254 152.53 19.4124 160.2 24.9342C177.624 37.4744 188.334 54.4895 191.285 73.8621L191.286 73.8657C192.088 79.4016 192.127 91.6906 191.573 106.095C191.018 120.517 189.866 137.111 188.275 151.284L188.275 151.284C185.428 176.228 181.318 190.844 174.37 200.198L174.369 200.199C168.609 207.935 159.48 217.349 150.772 225.089C146.416 228.961 142.157 232.421 138.467 235.048C134.799 237.66 131.635 239.491 129.485 240.043C129.072 240.152 128.173 240.243 126.965 240.322C125.733 240.404 124.127 240.477 122.262 240.538C118.531 240.66 113.755 240.735 108.854 240.735H91.0272H90.8872L90.7675 240.663L85.5827 237.511C85.582 237.51 85.5813 237.51 85.5807 237.509C82.1826 235.488 75.1174 229.633 68.1168 223.351C61.1064 217.059 54.0951 210.279 50.8067 206.382L50.8048 206.38C46.0645 200.695 42.9778 196.318 40.6913 191.349C38.4062 186.384 36.9326 180.854 35.382 172.88L35.3819 172.88C32.6553 158.838 30.4778 136.333 29.3789 115.642C28.8293 105.293 28.549 95.3888 28.6053 87.2136C28.6615 79.056 29.0525 72.5714 29.8619 69.0921L29.8621 69.0913C36.438 41.0211 59.7801 18.8094 90.2398 11.4841C94.8767 10.3594 97.3004 9.78564 100.097 9.54707C102.884 9.3093 106.037 9.40508 112.134 9.59245C119.678 9.81816 125.824 10.4203 130.222 11.407ZM208.298 115.267L208.306 115.276C208.643 115.621 208.915 116.009 209.117 116.57C209.314 117.116 209.439 117.81 209.514 118.759C209.663 120.651 209.619 123.686 209.452 128.86C209.243 135.538 208.867 139.74 207.815 142.88C206.75 146.06 205.003 148.122 202.164 150.556L202.162 150.558L199.149 153.111L198.208 153.909L198.328 152.681L198.913 146.683C198.913 146.681 198.913 146.68 198.913 146.678C198.977 145.831 199.069 144.644 199.178 143.231C199.496 139.124 199.962 133.101 200.335 127.907C200.587 124.369 200.923 121.072 201.248 118.601C201.411 117.367 201.572 116.332 201.72 115.573C201.794 115.195 201.866 114.877 201.936 114.634C201.971 114.513 202.007 114.402 202.046 114.307C202.078 114.23 202.129 114.117 202.212 114.023C202.858 113.242 203.987 113.152 205.04 113.401C206.13 113.658 207.318 114.308 208.298 115.267L208.298 115.267ZM19.1281 117.893L19.1285 117.896C19.3809 120.085 19.9675 127.157 20.4694 133.537L20.4698 133.544C20.888 139.923 21.4727 146.818 21.7223 148.912C21.7225 148.913 21.7226 148.914 21.7228 148.915L22.224 152.664L22.4123 154.072L21.3836 153.092L17.2844 149.188C17.2841 149.188 17.2837 149.187 17.2834 149.187C14.7843 146.83 13.2354 144.885 12.247 141.951C11.2704 139.052 10.8508 135.213 10.5163 129.097C10.1825 123.217 10.2756 119.363 11.0972 116.974C11.5156 115.757 12.136 114.878 13.0179 114.315C13.8915 113.757 14.9613 113.547 16.2046 113.547C16.6529 113.547 17.0694 113.574 17.4305 113.699C17.8184 113.834 18.1194 114.074 18.3463 114.443C18.5596 114.79 18.6992 115.238 18.8127 115.783C18.9272 116.334 19.0235 117.029 19.1281 117.893Z" fill="#FFFEFE" stroke="black"/>
</svg>
