<svg width="334" height="83" viewBox="0 0 334 83" fill="none" xmlns="http://www.w3.org/2000/svg">
<rect x="1.5" y="1.5" width="331" height="80" rx="28.5" fill="white" stroke="#5065FC" stroke-width="3"/>
<path d="M88.44 50V33.2H98.364V36.128H91.368V39.536H97.212V42.464H91.368V50H88.44ZM108.399 38H111.327V50H108.399L108.267 48.512C107.939 49.048 107.503 49.484 106.959 49.82C106.423 50.148 105.787 50.312 105.051 50.312C104.163 50.312 103.331 50.144 102.555 49.808C101.779 49.472 101.095 49.008 100.503 48.416C99.9189 47.824 99.4589 47.14 99.1229 46.364C98.7949 45.588 98.6309 44.756 98.6309 43.868C98.6309 43.012 98.7869 42.208 99.0989 41.456C99.4189 40.704 99.8629 40.044 100.431 39.476C100.999 38.908 101.655 38.464 102.399 38.144C103.143 37.824 103.943 37.664 104.799 37.664C105.591 37.664 106.299 37.84 106.923 38.192C107.555 38.544 108.091 38.992 108.531 39.536L108.399 38ZM104.979 47.492C105.603 47.492 106.155 47.336 106.635 47.024C107.115 46.712 107.491 46.292 107.763 45.764C108.035 45.228 108.171 44.64 108.171 44C108.171 43.352 108.035 42.764 107.763 42.236C107.491 41.7 107.111 41.276 106.623 40.964C106.143 40.652 105.595 40.496 104.979 40.496C104.363 40.496 103.799 40.656 103.287 40.976C102.783 41.288 102.379 41.708 102.075 42.236C101.779 42.764 101.631 43.352 101.631 44C101.631 44.648 101.783 45.236 102.087 45.764C102.391 46.292 102.795 46.712 103.299 47.024C103.811 47.336 104.371 47.492 104.979 47.492ZM121.124 46.388L123.764 47.816C123.212 48.568 122.52 49.172 121.688 49.628C120.856 50.084 119.948 50.312 118.964 50.312C117.86 50.312 116.852 50.028 115.94 49.46C115.036 48.892 114.312 48.132 113.768 47.18C113.232 46.22 112.964 45.16 112.964 44C112.964 43.12 113.12 42.3 113.432 41.54C113.744 40.772 114.172 40.1 114.716 39.524C115.268 38.94 115.908 38.484 116.636 38.156C117.364 37.828 118.14 37.664 118.964 37.664C119.948 37.664 120.856 37.892 121.688 38.348C122.52 38.804 123.212 39.416 123.764 40.184L121.124 41.6C120.844 41.28 120.512 41.032 120.128 40.856C119.752 40.68 119.364 40.592 118.964 40.592C118.388 40.592 117.868 40.752 117.404 41.072C116.94 41.384 116.572 41.8 116.3 42.32C116.028 42.832 115.892 43.392 115.892 44C115.892 44.6 116.028 45.16 116.3 45.68C116.572 46.192 116.94 46.604 117.404 46.916C117.868 47.228 118.388 47.384 118.964 47.384C119.38 47.384 119.776 47.296 120.152 47.12C120.528 46.936 120.852 46.692 121.124 46.388ZM131.023 50.312C129.919 50.312 128.911 50.028 127.999 49.46C127.095 48.892 126.371 48.128 125.827 47.168C125.291 46.208 125.023 45.148 125.023 43.988C125.023 43.116 125.179 42.3 125.491 41.54C125.803 40.772 126.231 40.1 126.775 39.524C127.327 38.94 127.967 38.484 128.695 38.156C129.423 37.828 130.199 37.664 131.023 37.664C131.959 37.664 132.815 37.864 133.591 38.264C134.375 38.656 135.039 39.196 135.583 39.884C136.127 40.572 136.523 41.356 136.771 42.236C137.019 43.116 137.075 44.036 136.939 44.996H128.167C128.279 45.444 128.463 45.848 128.719 46.208C128.975 46.56 129.299 46.844 129.691 47.06C130.083 47.268 130.527 47.376 131.023 47.384C131.535 47.392 131.999 47.272 132.415 47.024C132.839 46.768 133.191 46.424 133.471 45.992L136.459 46.688C135.971 47.752 135.243 48.624 134.275 49.304C133.307 49.976 132.223 50.312 131.023 50.312ZM128.071 42.8H133.975C133.887 42.32 133.699 41.888 133.411 41.504C133.131 41.112 132.783 40.8 132.367 40.568C131.951 40.336 131.503 40.22 131.023 40.22C130.543 40.22 130.099 40.336 129.691 40.568C129.283 40.792 128.935 41.1 128.647 41.492C128.367 41.876 128.175 42.312 128.071 42.8ZM153.114 50.312C151.978 50.312 150.91 50.088 149.91 49.64C148.91 49.184 148.03 48.556 147.27 47.756C146.518 46.956 145.926 46.032 145.494 44.984C145.07 43.928 144.858 42.8 144.858 41.6C144.858 40.392 145.07 39.264 145.494 38.216C145.926 37.16 146.518 36.236 147.27 35.444C148.03 34.644 148.91 34.02 149.91 33.572C150.91 33.116 151.978 32.888 153.114 32.888C154.474 32.888 155.726 33.204 156.87 33.836C158.014 34.46 158.962 35.296 159.714 36.344L157.098 37.748C156.626 37.164 156.038 36.696 155.334 36.344C154.638 35.992 153.898 35.816 153.114 35.816C152.378 35.816 151.686 35.968 151.038 36.272C150.39 36.568 149.822 36.984 149.334 37.52C148.846 38.048 148.466 38.664 148.194 39.368C147.922 40.064 147.786 40.808 147.786 41.6C147.786 42.4 147.922 43.148 148.194 43.844C148.474 44.54 148.858 45.156 149.346 45.692C149.834 46.22 150.398 46.636 151.038 46.94C151.686 47.236 152.378 47.384 153.114 47.384C153.914 47.384 154.658 47.208 155.346 46.856C156.042 46.496 156.626 46.024 157.098 45.44L159.714 46.856C158.962 47.896 158.014 48.732 156.87 49.364C155.726 49.996 154.474 50.312 153.114 50.312ZM162.097 50L162.085 38H165.013L165.025 39.068C165.433 38.636 165.921 38.296 166.489 38.048C167.057 37.792 167.669 37.664 168.325 37.664C168.765 37.664 169.205 37.728 169.645 37.856L168.493 40.808C168.189 40.688 167.885 40.628 167.581 40.628C167.109 40.628 166.677 40.744 166.285 40.976C165.901 41.2 165.593 41.508 165.361 41.9C165.137 42.284 165.025 42.712 165.025 43.184V50H162.097ZM175.909 50.312C174.805 50.312 173.797 50.028 172.885 49.46C171.981 48.892 171.257 48.132 170.713 47.18C170.177 46.22 169.909 45.16 169.909 44C169.909 43.12 170.065 42.3 170.377 41.54C170.689 40.772 171.117 40.1 171.661 39.524C172.213 38.94 172.853 38.484 173.581 38.156C174.309 37.828 175.085 37.664 175.909 37.664C177.013 37.664 178.017 37.948 178.921 38.516C179.833 39.084 180.557 39.848 181.093 40.808C181.637 41.768 181.909 42.832 181.909 44C181.909 44.872 181.753 45.688 181.441 46.448C181.129 47.208 180.697 47.88 180.145 48.464C179.601 49.04 178.965 49.492 178.237 49.82C177.517 50.148 176.741 50.312 175.909 50.312ZM175.909 47.384C176.493 47.384 177.017 47.228 177.481 46.916C177.945 46.604 178.309 46.192 178.573 45.68C178.845 45.168 178.981 44.608 178.981 44C178.981 43.376 178.841 42.808 178.561 42.296C178.289 41.776 177.917 41.364 177.445 41.06C176.981 40.748 176.469 40.592 175.909 40.592C175.333 40.592 174.813 40.748 174.349 41.06C173.885 41.372 173.517 41.788 173.245 42.308C172.973 42.828 172.837 43.392 172.837 44C172.837 44.632 172.977 45.204 173.257 45.716C173.537 46.228 173.909 46.636 174.373 46.94C174.845 47.236 175.357 47.384 175.909 47.384ZM186.905 56H183.977V38H186.905V39.524C187.297 38.98 187.777 38.54 188.345 38.204C188.921 37.86 189.593 37.688 190.361 37.688C191.241 37.688 192.061 37.852 192.821 38.18C193.581 38.508 194.249 38.964 194.825 39.548C195.409 40.124 195.861 40.792 196.181 41.552C196.509 42.312 196.673 43.128 196.673 44C196.673 44.872 196.509 45.692 196.181 46.46C195.861 47.228 195.409 47.904 194.825 48.488C194.249 49.064 193.581 49.516 192.821 49.844C192.061 50.172 191.241 50.336 190.361 50.336C189.593 50.336 188.921 50.168 188.345 49.832C187.777 49.488 187.297 49.044 186.905 48.5V56ZM190.325 40.508C189.717 40.508 189.173 40.668 188.693 40.988C188.213 41.3 187.837 41.72 187.565 42.248C187.293 42.776 187.157 43.36 187.157 44C187.157 44.64 187.293 45.228 187.565 45.764C187.837 46.292 188.213 46.716 188.693 47.036C189.173 47.348 189.717 47.504 190.325 47.504C190.941 47.504 191.505 47.348 192.017 47.036C192.529 46.724 192.937 46.304 193.241 45.776C193.545 45.24 193.697 44.648 193.697 44C193.697 43.36 193.545 42.776 193.241 42.248C192.937 41.72 192.529 41.3 192.017 40.988C191.513 40.668 190.949 40.508 190.325 40.508ZM201.684 56H198.756V38H201.684V39.524C202.076 38.98 202.556 38.54 203.124 38.204C203.7 37.86 204.372 37.688 205.14 37.688C206.02 37.688 206.84 37.852 207.6 38.18C208.36 38.508 209.028 38.964 209.604 39.548C210.188 40.124 210.64 40.792 210.96 41.552C211.288 42.312 211.452 43.128 211.452 44C211.452 44.872 211.288 45.692 210.96 46.46C210.64 47.228 210.188 47.904 209.604 48.488C209.028 49.064 208.36 49.516 207.6 49.844C206.84 50.172 206.02 50.336 205.14 50.336C204.372 50.336 203.7 50.168 203.124 49.832C202.556 49.488 202.076 49.044 201.684 48.5V56ZM205.104 40.508C204.496 40.508 203.952 40.668 203.472 40.988C202.992 41.3 202.616 41.72 202.344 42.248C202.072 42.776 201.936 43.36 201.936 44C201.936 44.64 202.072 45.228 202.344 45.764C202.616 46.292 202.992 46.716 203.472 47.036C203.952 47.348 204.496 47.504 205.104 47.504C205.72 47.504 206.284 47.348 206.796 47.036C207.308 46.724 207.716 46.304 208.02 45.776C208.324 45.24 208.476 44.648 208.476 44C208.476 43.36 208.324 42.776 208.02 42.248C207.716 41.72 207.308 41.3 206.796 40.988C206.292 40.668 205.728 40.508 205.104 40.508ZM213.276 38H216.204V50H213.276V38ZM214.764 36.452C214.332 36.452 213.968 36.312 213.672 36.032C213.376 35.744 213.228 35.384 213.228 34.952C213.228 34.528 213.376 34.172 213.672 33.884C213.968 33.596 214.328 33.452 214.752 33.452C215.176 33.452 215.532 33.596 215.82 33.884C216.116 34.172 216.264 34.528 216.264 34.952C216.264 35.384 216.12 35.744 215.832 36.032C215.544 36.312 215.188 36.452 214.764 36.452ZM230.187 42.416V50H227.259V43.184C227.259 42.712 227.143 42.284 226.911 41.9C226.679 41.508 226.367 41.2 225.975 40.976C225.591 40.744 225.163 40.628 224.691 40.628C224.219 40.628 223.787 40.744 223.395 40.976C223.011 41.2 222.703 41.508 222.471 41.9C222.247 42.284 222.135 42.712 222.135 43.184V50H219.207L219.195 38H222.123L222.135 39.068C222.543 38.636 223.031 38.296 223.599 38.048C224.167 37.792 224.779 37.664 225.435 37.664C226.307 37.664 227.103 37.88 227.823 38.312C228.543 38.736 229.115 39.308 229.539 40.028C229.971 40.74 230.187 41.536 230.187 42.416ZM241.447 38H244.375V50.228C244.375 51.092 244.199 51.876 243.847 52.58C243.495 53.292 243.015 53.9 242.407 54.404C241.799 54.916 241.103 55.308 240.319 55.58C239.535 55.86 238.711 56 237.847 56C237.007 56 236.199 55.828 235.423 55.484C234.647 55.14 233.959 54.668 233.359 54.068C232.767 53.476 232.315 52.8 232.003 52.04L234.679 50.828C234.839 51.268 235.079 51.652 235.399 51.98C235.727 52.316 236.103 52.576 236.527 52.76C236.951 52.952 237.391 53.048 237.847 53.048C238.311 53.048 238.755 52.984 239.179 52.856C239.611 52.728 239.999 52.54 240.343 52.292C240.687 52.052 240.955 51.756 241.147 51.404C241.347 51.06 241.447 50.668 241.447 50.228V48.536C241.071 49.064 240.599 49.492 240.031 49.82C239.463 50.148 238.807 50.312 238.063 50.312C237.199 50.312 236.391 50.148 235.639 49.82C234.887 49.492 234.223 49.04 233.647 48.464C233.079 47.88 232.631 47.208 232.303 46.448C231.983 45.688 231.823 44.872 231.823 44C231.823 43.128 231.983 42.312 232.303 41.552C232.631 40.792 233.079 40.124 233.647 39.548C234.223 38.964 234.887 38.508 235.639 38.18C236.391 37.852 237.199 37.688 238.063 37.688C238.807 37.688 239.463 37.852 240.031 38.18C240.599 38.5 241.071 38.924 241.447 39.452V38ZM238.099 47.492C238.715 47.492 239.259 47.336 239.731 47.024C240.211 46.704 240.587 46.28 240.859 45.752C241.131 45.216 241.267 44.632 241.267 44C241.267 43.36 241.127 42.776 240.847 42.248C240.575 41.72 240.199 41.296 239.719 40.976C239.247 40.656 238.707 40.496 238.099 40.496C237.499 40.496 236.951 40.656 236.455 40.976C235.959 41.288 235.563 41.708 235.267 42.236C234.971 42.764 234.823 43.352 234.823 44C234.823 44.648 234.971 45.236 235.267 45.764C235.563 46.292 235.959 46.712 236.455 47.024C236.951 47.336 237.499 47.492 238.099 47.492Z" fill="#5065FC"/>
</svg>
