<svg width="44" height="45" viewBox="0 0 44 45" fill="none" xmlns="http://www.w3.org/2000/svg">
<rect x="0.5" y="0.5" width="43" height="44" rx="14.5" fill="#5065FC" stroke="black"/>
<path d="M21.1103 37.5H21.1102C20.983 37.4999 20.8574 37.4791 20.7391 37.4392C20.5104 37.3611 20.3238 37.2163 20.2037 37.0356C20.084 36.8556 20.0352 36.648 20.0595 36.445L20.0597 36.4434L21.2626 26.1307L21.3277 25.5728H20.766H11.5646H11.5639C11.364 25.5731 11.1698 25.5225 11.0025 25.4291C10.8354 25.3358 10.7036 25.2046 10.6172 25.0534C10.531 24.9025 10.492 24.7356 10.5014 24.5699C10.5108 24.4041 10.5685 24.2407 10.6726 24.0974L10.6741 24.0954L22.9984 6.93383C22.9986 6.93352 22.9988 6.93321 22.9991 6.93291C23.127 6.75705 23.3193 6.61958 23.5503 6.54973C23.7814 6.47985 24.0317 6.48377 24.2598 6.56053C24.4783 6.63642 24.6582 6.77336 24.7776 6.94452C24.8948 7.11228 24.9492 7.30571 24.9387 7.49775L23.7374 17.8698L23.6728 18.4274H24.234L33.4354 18.4274L33.4361 18.4274C33.636 18.4271 33.8302 18.4776 33.9975 18.571C34.1646 18.6643 34.2964 18.7955 34.3828 18.9468C34.469 19.0976 34.508 19.2645 34.4986 19.4302C34.4892 19.596 34.4315 19.7594 34.3274 19.9027L34.3259 19.9048L22.0016 37.0663C22.0014 37.0666 22.0012 37.0669 22.001 37.0672C21.907 37.1963 21.7779 37.3055 21.6224 37.3822C21.4664 37.4592 21.2904 37.5003 21.1103 37.5ZM14.0796 22.8723L13.5121 23.6637H14.4859L22.4989 23.6637C22.4992 23.6637 22.4994 23.6637 22.4997 23.6637C22.6527 23.6641 22.8031 23.6944 22.9408 23.7516C23.0786 23.8088 23.1994 23.8911 23.2967 23.9914C23.3946 24.0929 23.4662 24.2103 23.509 24.3348C23.5519 24.4593 23.5657 24.5898 23.5502 24.7184L23.5499 24.7204L22.8469 30.7567L22.6238 32.673L23.7496 31.1064L30.9201 21.1282L31.4891 20.3364H30.5141L22.5 20.3364L22.4972 20.3364C22.3421 20.3373 22.1895 20.3076 22.0497 20.2501C21.91 20.1927 21.7875 20.1094 21.6892 20.0078C21.591 19.9063 21.5191 19.7889 21.476 19.6643C21.433 19.5399 21.419 19.4094 21.4343 19.2809L21.4344 19.2797L22.1374 13.2434L22.3611 11.323L21.2345 12.8942L14.0796 22.8723Z" fill="white" stroke="black"/>
</svg>
