<svg width="44" height="45" viewBox="0 0 44 45" fill="none" xmlns="http://www.w3.org/2000/svg">
<rect x="0.5" y="0.5" width="43" height="44" rx="14.5" fill="#5065FC" stroke="black"/>
<g clip-path="url(#clip0_97_74)">
<path d="M33.2443 33.4686L33.2457 33.4701C33.3262 33.5574 33.3922 33.6637 33.4379 33.7838C33.4837 33.9039 33.5077 34.0342 33.5077 34.1667C33.5077 34.2991 33.4837 34.4294 33.4379 34.5495C33.3922 34.6696 33.3262 34.7759 33.2457 34.8632L33.2429 34.8662C33.1631 34.9542 33.0706 35.0214 32.9721 35.0663C32.8737 35.1111 32.7701 35.1334 32.6667 35.1334C32.5632 35.1334 32.4596 35.1111 32.3612 35.0663C32.2627 35.0214 32.1702 34.9542 32.0904 34.8662L32.089 34.8647L10.7557 11.5314C10.5928 11.3532 10.4945 11.1028 10.4945 10.8333C10.4945 10.5638 10.5928 10.3134 10.7557 10.1353C10.8359 10.0476 10.9286 9.98064 11.0273 9.93592C11.1259 9.89127 11.2297 9.86902 11.3333 9.86902C11.4369 9.86902 11.5408 9.89127 11.6393 9.93592C11.738 9.98064 11.8308 10.0476 11.911 10.1353L33.2443 33.4686Z" fill="#FFF7F7" stroke="black"/>
<path d="M20.52 26.5833L20.4704 27.0833H20.52V26.5833ZM20.52 26.5833H20.0175L20.0225 26.5339L20.52 26.5833ZM22.2226 31.2867L23.1462 31.5989L24.2391 29.817L25.4574 31.1496L21.4947 37.6371C21.4945 37.6374 21.4942 37.6378 21.494 37.6381C21.4132 37.7686 21.3073 37.8706 21.1891 37.9392C21.0708 38.0078 20.9423 38.0418 20.8142 38.0416H20.814C20.7233 38.0415 20.6324 38.0242 20.5451 37.9896C20.3767 37.922 20.2243 37.7905 20.1199 37.606C20.015 37.4207 19.9679 37.1976 19.9908 36.9737L19.9909 36.9723L21.0176 26.6327L21.0497 26.3092L22.56 27.9788L22.2226 31.2867ZM14.9731 19.6824L16.191 21.0144L14.7331 23.4064L14.2697 24.1666H15.16H19.1114L20.8453 26.0833H20.52L12.6667 26.0833L12.6658 26.0833C12.524 26.0835 12.3814 26.0417 12.2532 25.9576C12.1244 25.8731 12.0135 25.748 11.9372 25.5912C11.8608 25.4343 11.8238 25.2546 11.8326 25.0722C11.8414 24.8899 11.8954 24.7166 11.9853 24.5711L11.9853 24.5711L11.9866 24.569L14.9731 19.6824Z" fill="#FFF7F7" stroke="black"/>
<path d="M21.7774 13.7133L20.8538 13.4011L19.761 15.183L18.5439 13.8518L22.5054 7.43574C22.5054 7.4357 22.5054 7.43566 22.5055 7.43562C22.6156 7.25739 22.7711 7.1337 22.9403 7.0736C23.1078 7.01409 23.2872 7.0171 23.4536 7.08274C23.6147 7.14859 23.7608 7.27291 23.8641 7.44659C23.9664 7.6188 24.0183 7.82653 24.008 8.03907L22.9825 18.3673L22.9503 18.6908L21.44 17.0212L21.7774 13.7133ZM28.9869 25.3176L27.769 23.9855L29.227 21.5936L29.6903 20.8334H28.8H24.8886L23.1547 18.9167H23.48H31.3246C31.4623 18.9222 31.5998 18.9675 31.723 19.0525C31.8487 19.1392 31.9562 19.2651 32.0294 19.4212C32.1027 19.5775 32.1373 19.7552 32.1274 19.935C32.1174 20.1147 32.0635 20.2852 31.9748 20.4286L31.9734 20.4309L28.9869 25.3176Z" fill="#FFF7F7" stroke="black"/>
</g>
<defs>
<clipPath id="clip0_97_74">
<rect width="32" height="35" fill="white" transform="translate(6 5)"/>
</clipPath>
</defs>
</svg>
